{"title":"Dark Shadows 2012 HDRIP Cropped XviD-ADTRG","uid":7582530,"size":1332547616,"categoryP":"video","categoryS":"movies","magnet":"?xt=urn:btih:0c505e3b181e0aaeed9dd3fc67e7317754230605&amp;dn=Dark+Shadows+2012+HDRIP+Cropped+XviD-ADTRG&amp;tr=udp%3A%2F%2Ftracker.openbittorrent.com%3A80&amp;tr=udp%3A%2F%2Fopen.demonii.com%3A1337&amp;tr=udp%3A%2F%2Ftracker.coppersurfer.tk%3A6969&amp;tr=udp%3A%2F%2Fexodus.desync.com%3A6969","seeders":1,"leechers":0,"uploader":".BONE.","files":2,"time":1346288792,"description":"An imprisoned vampire, Barnabas Collins, is set free and returns to his ancestral home, where his dysfunctional descendants are in need of his protection.\n\nJohnny Depp\t...\tBarnabas Collins\nMichelle Pfeiffer\t...\tElizabeth Collins Stoddard\nHelena Bonham Carter\t...\tDr. Julia Hoffman\nEva Green\t...\tAngelique Bouchard\nJackie Earle Haley\t...\tWillie Loomis\nJonny Lee Miller\t...\tRoger Collins\n\nGeneral\nComplete name : Dark Shadows-Cropped-Xvid Mp3-ADTRG.avi\nEncoder : SP1\nSource : Lucif3r [Thanks]\nFormat : AVI\nFormat/Info : Audio Video Interleave\nFile size : 1.22 GiB\nDuration : 1h 52mn\nOverall bit rate : 1 550 Kbps\nWriting application : VirtualDubMod 1.5.10.2 (build 2540/release)\nWriting library : VirtualDub build 32842/release\n\nVideo\nID : 0\nFormat : MPEG-4 Visual\nFormat profile : Advanced Simple@L5\nFormat settings, BVOP : 2\nFormat settings, QPel : No\nFormat settings, GMC : No warppoints\nFormat settings, Matrix : Default (H.263)\nMuxing mode : Packed bitstream\nCodec ID : XVID\nCodec ID/Hint : XviD\nDuration : 1h 52mn\nBit rate : 1 412 Kbps\nWidth : 720 pixels\nHeight : 304 pixels\nDisplay aspect ratio : 2.35:1\nFrame rate : 23.976 fps\nColor space : YUV\nChroma subsampling : 4:2:0\nBit depth : 8 bits\nScan type : Progressive\nCompression mode : Lossy\nBits/(Pixel*Frame) : 0.269\nStream size : 1.11 GiB (91%)\nWriting library : XviD 64\n\nAudio\nID : 1\nFormat : MPEG Audio\nFormat version : Version 1\nFormat profile : Layer 3\nMode : Joint stereo\nCodec ID : 55\nCodec ID/Hint : MP3\nDuration : 1h 52mn\nBit rate mode : Constant\nBit rate : 128 Kbps\nChannel(s) : 2 channels\nSampling rate : 48.0 KHz\nCompression mode : Lossy\nStream size : 103 MiB (8%)\nAlignment : Aligned on interleaves\nInterleave, duration : 42 ms (1.00 video frame)\nInterleave, preload duration : 504 ms\nWriting library : LAME3.99r\n\nNotes :\n\nWas asked to do this for a friend, they wanted AVI format, subs cropping out and smaller file size, did what i could, enjoy until DVD drops","torrent":{"xt":"urn:btih:0c505e3b181e0aaeed9dd3fc67e7317754230605","amp;dn":"Dark+Shadows+2012+HDRIP+Cropped+XviD-ADTRG","amp;tr":["udp%3A%2F%2Ftracker.openbittorrent.com%3A80","udp%3A%2F%2Fopen.demonii.com%3A1337","udp%3A%2F%2Ftracker.coppersurfer.tk%3A6969","udp%3A%2F%2Fexodus.desync.com%3A6969"],"infoHash":"0c505e3b181e0aaeed9dd3fc67e7317754230605","infoHashBuffer":{"type":"Buffer","data":[12,80,94,59,24,30,10,174,237,157,211,252,103,231,49,119,84,35,6,5]},"announce":[],"urlList":[]}}